<svg width="113" height="30" viewBox="0 0 113 30" fill="none" xmlns="http://www.w3.org/2000/svg">
<path d="M29.9837 6.50853L29.8585 5.95995C29.5864 4.75211 28.9658 3.64432 28.0691 2.76592C27.1725 1.88753 26.0368 1.27478 24.7947 0.999234C18.9866 -0.286538 12.9599 -0.331996 7.13192 0.866008L6.23546 1.05017C4.97095 1.31015 3.81062 1.91871 2.89377 2.80283C1.97691 3.68694 1.34249 4.80903 1.06665 6.0344L0.957623 6.51245C-0.319208 12.1517 -0.319208 17.9927 0.957623 23.632L1.04646 24.0238C1.32611 25.2386 1.95846 26.3503 2.86873 27.2273C3.779 28.1044 4.92909 28.7101 6.18296 28.9728L6.65138 29.0708C12.4629 30.3097 18.4824 30.3097 24.294 29.0708L24.7624 28.9728C26.0171 28.7085 27.1674 28.1008 28.0771 27.2216C28.9867 26.3424 29.6176 25.2285 29.8949 24.0121L29.9837 23.6202C31.2593 17.9835 31.2593 12.1453 29.9837 6.50853ZM19.9812 22.3585H10.9641C10.3922 22.3585 9.84372 22.1381 9.43933 21.7457C9.03493 21.3533 8.80774 20.821 8.80774 20.2661V13.4089C8.80804 13.2239 8.84972 13.0412 8.9299 12.8735C9.01007 12.7057 9.12684 12.5568 9.27213 12.4371L14.7519 7.90348C14.9529 7.73706 15.2084 7.64563 15.4727 7.64563C15.7369 7.64563 15.9925 7.73706 16.1935 7.90348L21.6732 12.4371C21.8185 12.5568 21.9353 12.7057 22.0155 12.8735C22.0956 13.0412 22.1373 13.2239 22.1376 13.4089V20.2661C22.1376 20.821 21.9104 21.3533 21.506 21.7457C21.1016 22.1381 20.5531 22.3585 19.9812 22.3585V22.3585Z" fill="#6B58F3"/>
<path d="M42.676 10.8069C42.5228 10.9265 42.4004 11.0791 42.3184 11.2525C42.2364 11.4259 42.1971 11.6154 42.2036 11.8061C42.2006 12.0062 42.2525 12.2035 42.354 12.3777C42.4555 12.5519 42.6028 12.6968 42.781 12.7975C43.166 13.043 44.0571 13.3317 45.4543 13.6634C46.647 13.9012 47.7624 14.4162 48.705 15.1642C49.4776 15.8303 49.8639 16.8034 49.8639 18.0834C49.8814 18.6784 49.7568 19.2693 49.4997 19.8098C49.2426 20.3502 48.86 20.8256 48.3819 21.1986C47.3912 21.9822 46.0896 22.3741 44.477 22.3741C42.554 22.3787 40.6826 21.7702 39.1508 20.6421C39.0221 20.5479 38.9142 20.4298 38.8332 20.2946C38.7522 20.1594 38.6998 20.0098 38.6792 19.8548C38.6585 19.6997 38.6699 19.5421 38.7127 19.3914C38.7556 19.2406 38.829 19.0997 38.9287 18.9768L39.393 18.4243C39.5891 18.2028 39.8631 18.0601 40.1617 18.0239C40.4603 17.9877 40.7621 18.0606 41.0083 18.2284C42.2574 19.1166 43.4285 19.5607 44.5215 19.5607C45.0267 19.5846 45.5261 19.4469 45.9429 19.1688C46.1086 19.0523 46.2424 18.8982 46.3325 18.7199C46.4226 18.5416 46.4663 18.3446 46.4598 18.1461C46.4665 17.9442 46.4195 17.7441 46.3233 17.5649C46.2271 17.3858 46.085 17.2337 45.9106 17.1234C45.2365 16.7496 44.504 16.4849 43.7421 16.3397C42.0488 15.9792 40.7983 15.4829 39.9907 14.8507C39.1831 14.2186 38.786 13.2246 38.7994 11.8688C38.7679 11.2667 38.8887 10.6663 39.1512 10.1199C39.4138 9.57348 39.8101 9.09771 40.3057 8.73408C41.3969 7.97295 42.7181 7.5856 44.0611 7.63301C45.0649 7.6362 46.0612 7.80174 47.0089 8.12281C47.5307 8.29385 48.0339 8.51434 48.5111 8.7811C48.654 8.86137 48.7785 8.96914 48.8769 9.09779C48.9753 9.22644 49.0456 9.37325 49.0834 9.5292C49.1212 9.68516 49.1258 9.84697 49.0968 10.0047C49.0678 10.1624 49.006 10.3128 48.9149 10.4464L48.5838 10.9088C48.4088 11.1441 48.1504 11.3083 47.8581 11.3698C47.5659 11.4313 47.2606 11.3857 47.0009 11.2419C46.0805 10.715 45.0328 10.4338 43.9642 10.4268C43.5022 10.4035 43.0464 10.538 42.676 10.8069Z" fill="#6B58F3"/>
<path d="M59.5033 17.1669V12.4021C59.5085 12.0971 59.6357 11.8061 59.858 11.5904C60.0803 11.3747 60.3803 11.2513 60.6946 11.2462H61.5022C61.8165 11.2513 62.1165 11.3747 62.3388 11.5904C62.5611 11.8061 62.6883 12.0971 62.6935 12.4021V21.0775C62.6883 21.3825 62.5611 21.6736 62.3388 21.8893C62.1165 22.105 61.8165 22.2284 61.5022 22.2335H60.6946C60.3803 22.2284 60.0803 22.105 59.858 21.8893C59.6357 21.6736 59.5085 21.3825 59.5033 21.0775V20.768C59.1787 21.2648 58.7294 21.6735 58.1976 21.9558C57.6658 22.2382 57.0688 22.3849 56.4626 22.3824C55.3087 22.4133 54.1877 22.0071 53.3371 21.2499C52.4945 20.495 52.0732 19.3756 52.0732 17.8918V12.4061C52.0784 12.1011 52.2056 11.81 52.4278 11.5943C52.6501 11.3786 52.9501 11.2552 53.2644 11.2501H54.0721C54.3864 11.2552 54.6864 11.3786 54.9086 11.5943C55.1309 11.81 55.2581 12.1011 55.2633 12.4061V17.2414C55.2633 18.9289 55.9013 19.7727 57.1774 19.7727C57.4832 19.7759 57.7866 19.7189 58.0691 19.6051C58.3516 19.4912 58.6073 19.323 58.8209 19.1105C59.0652 18.8488 59.2517 18.5414 59.3691 18.2071C59.4864 17.8729 59.5321 17.5189 59.5033 17.1669V17.1669Z" fill="#6B58F3"/>
<path d="M72.2564 11.0619C72.9277 11.0702 73.5895 11.2174 74.1974 11.4938C74.8054 11.7702 75.3455 12.1693 75.7817 12.6645C76.8231 13.7592 77.3787 15.2076 77.3283 16.6966C77.3772 18.1971 76.8226 19.6572 75.7817 20.7678C75.3341 21.2794 74.7773 21.6905 74.1497 21.9726C73.5222 22.2548 72.839 22.4012 72.1474 22.4018C71.4989 22.4121 70.8575 22.2686 70.2791 21.9839C69.7006 21.6991 69.2026 21.2817 68.8281 20.7678V25.0389C68.8229 25.3439 68.6957 25.635 68.4734 25.8507C68.2511 26.0664 67.9511 26.1898 67.6368 26.1948H66.8574C66.5431 26.1898 66.2431 26.0664 66.0209 25.8507C65.7986 25.635 65.6714 25.3439 65.6662 25.0389V12.402C65.6714 12.097 65.7986 11.8059 66.0209 11.5902C66.2431 11.3745 66.5431 11.2511 66.8574 11.2461H67.6368C67.9511 11.2511 68.2511 11.3745 68.4734 11.5902C68.6957 11.8059 68.8229 12.097 68.8281 12.402V12.4725C69.2701 12.0228 69.8022 11.6657 70.3919 11.4231C70.9815 11.1805 71.616 11.0576 72.2564 11.0619V11.0619ZM68.7836 16.7514C68.7485 17.5477 69.0223 18.3279 69.5509 18.9379C69.7768 19.2045 70.0611 19.4188 70.3831 19.5652C70.7052 19.7116 71.0568 19.7865 71.4125 19.7843C71.7752 19.7833 72.1335 19.7073 72.4635 19.5614C72.7936 19.4154 73.0878 19.2029 73.3265 18.9379C73.8795 18.344 74.1696 17.5629 74.1342 16.7632C74.158 15.9499 73.8703 15.1569 73.3265 14.5375C73.0974 14.2581 72.8063 14.0324 72.475 13.8771C72.1436 13.7217 71.7805 13.6408 71.4125 13.6402C71.0489 13.6382 70.6897 13.7174 70.3627 13.8716C70.0357 14.0259 69.7496 14.251 69.5266 14.5297C69.0134 15.1602 68.7511 15.9488 68.7877 16.7514H68.7836Z" fill="#6B58F3"/>
<path d="M81.6499 22.2329H80.8705C80.5562 22.2279 80.2562 22.1044 80.0339 21.8887C79.8116 21.6731 79.6845 21.382 79.6793 21.077V8.22847C79.6845 7.92347 79.8116 7.63238 80.0339 7.41668C80.2562 7.20099 80.5562 7.07758 80.8705 7.07254H81.6499C81.9642 7.07758 82.2642 7.20099 82.4865 7.41668C82.7087 7.63238 82.8359 7.92347 82.8411 8.22847V21.077C82.8359 21.382 82.7087 21.6731 82.4865 21.8887C82.2642 22.1044 81.9642 22.2279 81.6499 22.2329V22.2329Z" fill="#6B58F3"/>
<path d="M94.2581 22.2333H93.6685C93.3556 22.2263 93.0577 22.102 92.8371 21.8865C92.6165 21.671 92.4905 21.381 92.4853 21.0774V20.905C92.1394 21.3675 91.6851 21.7437 91.16 22.0026C90.6348 22.2615 90.0538 22.3956 89.4648 22.394C88.3593 22.4327 87.278 22.0741 86.4282 21.3869C86.0292 21.0558 85.7128 20.6412 85.503 20.1742C85.2931 19.7072 85.1952 19.2001 85.2167 18.6911C85.1851 18.2004 85.2849 17.7101 85.5063 17.2679C85.7278 16.8257 86.0635 16.4466 86.4807 16.1676C87.3233 15.6086 88.4741 15.3291 89.9333 15.3291H92.2915V15.282C92.2915 14.1117 91.6535 13.5266 90.3774 13.5266C89.7842 13.5351 89.1969 13.6425 88.6411 13.844C88.4072 13.9245 88.178 14.0174 87.9546 14.1222C87.6921 14.2432 87.3935 14.2687 87.1133 14.1938C86.8331 14.119 86.5899 13.949 86.4282 13.7147L86.3837 13.652C86.2878 13.5195 86.2218 13.3688 86.1901 13.2098C86.1585 13.0508 86.1618 12.8871 86.1999 12.7295C86.2381 12.5719 86.3101 12.4238 86.4114 12.2951C86.5127 12.1664 86.6409 12.06 86.7876 11.9827C88.0165 11.3762 89.3784 11.0671 90.757 11.0815C91.9647 11.0283 93.1543 11.3813 94.1248 12.0807C94.9944 12.7468 95.4291 13.8022 95.4291 15.2468V21.0774C95.4241 21.3791 95.2997 21.6673 95.0818 21.8825C94.8638 22.0977 94.5689 22.2233 94.2581 22.2333V22.2333ZM92.2713 18.0484V17.5155H90.2926C89.0301 17.5155 88.3988 17.8969 88.3988 18.6597C88.3894 18.8359 88.4259 19.0116 88.505 19.1704C88.584 19.3293 88.703 19.4663 88.851 19.5688C89.2384 19.8032 89.6917 19.9142 90.1473 19.8862C90.6866 19.8926 91.2111 19.7151 91.6293 19.3846C91.8372 19.2267 92.0037 19.0234 92.1153 18.7912C92.2269 18.559 92.2803 18.3045 92.2713 18.0484V18.0484Z" fill="#6B58F3"/>
<path d="M96.7838 9.19342C96.5654 8.98165 96.4168 8.71175 96.3568 8.41793C96.2967 8.1241 96.3279 7.81959 96.4464 7.543C96.565 7.26641 96.7654 7.0302 97.0225 6.86431C97.2795 6.69841 97.5815 6.61032 97.8902 6.61118C98.0954 6.60962 98.2988 6.64767 98.4886 6.72313C98.6785 6.79858 98.8509 6.90993 98.996 7.0507C99.1411 7.19146 99.2558 7.35882 99.3336 7.54303C99.4113 7.72724 99.4506 7.92463 99.4489 8.12369C99.4479 8.4224 99.356 8.71417 99.1847 8.96238C99.0134 9.21059 98.7704 9.40418 98.4862 9.51886C98.2019 9.63354 97.8891 9.66421 97.5869 9.60701C97.2848 9.54981 97.0068 9.40729 96.7878 9.19734L96.7838 9.19342ZM99.5216 11.2467H100.301C100.615 11.2517 100.915 11.3751 101.138 11.5908C101.36 11.8065 101.487 12.0976 101.492 12.4026V21.078C101.487 21.383 101.36 21.6741 101.138 21.8898C100.915 22.1055 100.615 22.2289 100.301 22.2339H99.5216C99.2073 22.2289 98.9073 22.1055 98.685 21.8898C98.4628 21.6741 98.3356 21.383 98.3304 21.078V12.4026C98.3355 12.0983 98.4622 11.8077 98.6836 11.5922C98.905 11.3766 99.204 11.2527 99.5176 11.2467H99.5216ZM100.846 9.19342C100.556 8.90758 100.394 8.52269 100.394 8.12173C100.394 7.72077 100.556 7.33588 100.846 7.05004C101.064 6.83819 101.343 6.69398 101.645 6.63571C101.948 6.57744 102.262 6.60772 102.547 6.72272C102.832 6.83772 103.075 7.03226 103.246 7.28168C103.417 7.53109 103.508 7.82415 103.507 8.12369C103.506 8.4224 103.414 8.71417 103.243 8.96238C103.072 9.21059 102.829 9.40418 102.544 9.51886C102.26 9.63354 101.947 9.66421 101.645 9.60701C101.343 9.54981 101.065 9.40729 100.846 9.19734V9.19342Z" fill="#6B58F3"/>
<path d="M112.997 18.8088C113.018 19.3046 112.919 19.7981 112.708 20.2504C112.498 20.7026 112.182 21.1012 111.786 21.4145C110.897 22.0902 109.789 22.4374 108.66 22.3942C107.758 22.3835 106.864 22.2314 106.011 21.9435C105.539 21.7934 105.082 21.6006 104.647 21.3675C104.501 21.2874 104.375 21.1789 104.275 21.049C104.175 20.9191 104.104 20.7706 104.066 20.6127C104.028 20.4548 104.024 20.2911 104.055 20.1317C104.085 19.9723 104.149 19.8207 104.243 19.6865L104.275 19.6434C104.444 19.4096 104.697 19.2452 104.985 19.1822C105.272 19.1192 105.573 19.1621 105.83 19.3025C106.704 19.7915 107.696 20.0496 108.705 20.0509C109.045 20.0683 109.382 19.9864 109.674 19.8158C109.785 19.7512 109.876 19.6598 109.939 19.5505C110.002 19.4413 110.034 19.318 110.033 19.1928C110.019 19.0436 109.966 18.9002 109.88 18.7756C109.794 18.6511 109.678 18.5494 109.541 18.4797C109.096 18.2123 108.615 18.0065 108.111 17.8684C107.487 17.6777 107.01 17.5144 106.682 17.3786C106.291 17.2109 105.914 17.0131 105.555 16.7869C105.147 16.5545 104.812 16.2188 104.585 15.8157C104.358 15.4127 104.248 14.9574 104.267 14.4985C104.258 14.0171 104.368 13.5406 104.588 13.109C104.808 12.6774 105.131 12.3034 105.531 12.0182C106.474 11.3468 107.625 11.0081 108.794 11.0582C109.811 11.0678 110.812 11.3066 111.717 11.7557C111.861 11.8257 111.989 11.9234 112.093 12.0429C112.197 12.1624 112.275 12.3011 112.322 12.4507C112.368 12.6002 112.383 12.7575 112.366 12.9128C112.348 13.0682 112.298 13.2184 112.218 13.3544L112.198 13.3936C112.045 13.6483 111.799 13.838 111.509 13.925C111.219 14.0121 110.905 13.9903 110.631 13.8638C110.02 13.5829 109.353 13.4345 108.677 13.4288C107.702 13.4288 107.215 13.69 107.215 14.2125C107.216 14.3565 107.26 14.497 107.342 14.6173C107.424 14.7375 107.539 14.8323 107.675 14.8904C108.168 15.1244 108.682 15.3159 109.21 15.4625C109.926 15.6793 110.435 15.8465 110.736 15.964C111.111 16.1162 111.473 16.297 111.818 16.5048C112.604 16.9619 112.997 17.7299 112.997 18.8088Z" fill="#6B58F3"/>
</svg>
